<svg xmlns="http://www.w3.org/2000/svg" viewBox="0 0 128 128">
  <defs>
    <linearGradient id="grad" x1="0%" y1="0%" x2="100%" y2="100%">
      <stop offset="0%" style="stop-color:#6366f1;stop-opacity:1" />
      <stop offset="100%" style="stop-color:#0ea5e9;stop-opacity:1" />
    </linearGradient>
    <filter id="shadow" x="-20%" y="-20%" width="140%" height="140%">
      <feDropShadow dx="0" dy="4" stdDeviation="4" flood-color="#000" flood-opacity="0.15"/>
    </filter>
  </defs>
  <rect width="128" height="128" rx="28" fill="url(#grad)" />
  
  <g filter="url(#shadow)">
    <rect x="24" y="45" width="12" height="20" rx="6" fill="white" opacity="0.5" />
    <rect x="42" y="35" width="12" height="40" rx="6" fill="white" opacity="0.8" />
    <rect x="60" y="25" width="12" height="60" rx="6" fill="white" />
    <rect x="78" y="38" width="12" height="34" rx="6" fill="white" opacity="0.8" />
    <rect x="96" y="48" width="12" height="14" rx="6" fill="white" opacity="0.5" />

    <rect x="24" y="92" width="28" height="8" rx="4" fill="white" opacity="0.6" />
    <rect x="58" y="92" width="46" height="8" rx="4" fill="white" />
    <rect x="24" y="108" width="50" height="8" rx="4" fill="white" opacity="0.6" />
    <rect x="80" y="108" width="20" height="8" rx="4" fill="white" opacity="0.4" />
  </g>

  <rect x="64" y="20" width="4" height="96" rx="2" fill="white" opacity="0.25" style="mix-blend-mode: overlay;" />
</svg>